<svg width="70" height="70" viewBox="0 0 70 70" fill="none" xmlns="http://www.w3.org/2000/svg">
<rect x="1" y="1" width="68" height="68" stroke="#F1F5F9" stroke-width="2"/>
<path d="M35.0273 12.536H36.0513C37.0753 12.536 38.0779 12.664 39.0593 12.92C40.0406 13.1333 40.9153 13.5387 41.6833 14.136C42.4513 14.6907 43.0699 15.4587 43.5393 16.44C44.0086 17.4213 44.2433 18.68 44.2433 20.216V42.424C44.2433 44.0027 43.9873 45.2827 43.4753 46.264C43.0059 47.2453 42.3659 48.0133 41.5553 48.568C40.7873 49.1227 39.8699 49.5067 38.8033 49.72C37.7793 49.9333 36.7339 50.04 35.6673 50.04H35.0273V12.536ZM24.8513 52.856C24.8513 51.5333 25.1073 50.4667 25.6193 49.656C26.1313 48.8027 26.7499 48.1413 27.4753 47.672C28.2006 47.2027 28.9686 46.904 29.7793 46.776C30.5899 46.6053 31.2939 46.52 31.8913 46.52C32.4033 46.52 32.8299 46.5627 33.1713 46.648V49.592C33.1713 50.488 33.3846 51.1493 33.8113 51.576C34.2379 52.0027 34.7713 52.216 35.4113 52.216C36.1793 52.216 36.8619 51.96 37.4593 51.448C37.5873 51.7893 37.6513 52.1093 37.6513 52.408C37.6939 52.664 37.7153 52.9627 37.7153 53.304C37.7153 53.816 37.5873 54.4133 37.3313 55.096C37.1179 55.736 36.7553 56.3547 36.2433 56.952C35.7739 57.5067 35.1339 57.9973 34.3233 58.424C33.5553 58.808 32.6166 59 31.5073 59C30.3553 59 29.3526 58.808 28.4993 58.424C27.6886 58.04 27.0059 57.5707 26.4513 57.016C25.9393 56.4187 25.5339 55.7573 25.2353 55.032C24.9793 54.3067 24.8513 53.5813 24.8513 52.856Z" fill="#34D399"/>
</svg>
