<svg width="24" height="24" viewBox="0 0 24 24" fill="none" xmlns="http://www.w3.org/2000/svg">
<path d="M20.472 3.49867C18.1387 1.17733 15.288 0 12 0C8.68133 0 5.82267 1.17867 3.50267 3.5C1.17867 5.82133 0 8.68267 0 12C0 15.2867 1.17733 18.1373 3.49867 20.472C5.82 22.8133 8.68 24 12 24C15.2893 24 18.14 22.8133 20.4747 20.476C22.8147 18.1387 24 15.2867 24 12C24 8.68267 22.8133 5.82133 20.472 3.49867ZM18.5893 18.5907C17.0733 20.1093 15.3413 20.9747 13.3333 21.2373V14.6667H16V12H13.3333V10.1333C13.3333 10.0282 13.3541 9.92403 13.3944 9.82688C13.4346 9.72973 13.4937 9.64148 13.5681 9.56718C13.6425 9.49287 13.7309 9.43397 13.8281 9.39385C13.9253 9.35372 14.0295 9.33316 14.1347 9.33333H16V6.66667H14.1373C13.148 6.66667 12.3227 7.03067 11.6613 7.76267C11 8.492 10.6667 9.38267 10.6667 10.44V12H8V14.6667H10.6667V21.24C8.63733 20.98 6.89867 20.1133 5.39067 18.5947C3.55733 16.7493 2.66667 14.592 2.66667 12C2.66667 9.37867 3.556 7.216 5.38933 5.38667C7.216 3.556 9.37867 2.66667 12 2.66667C14.5933 2.66667 16.7493 3.55733 18.5933 5.39067C20.4373 7.22 21.3333 9.38267 21.3333 12C21.3333 14.588 20.436 16.7453 18.5893 18.5907Z" fill="#CBD5E1"/>
</svg>
