<svg width="26" height="26" viewBox="0 0 26 26" fill="none" xmlns="http://www.w3.org/2000/svg">
<path d="M13 25C19.6276 25 25 19.6276 25 13C25 6.3724 19.6276 1 13 1C6.3724 1 1 6.3724 1 13C1 19.6276 6.3724 25 13 25Z" stroke="#CBD5E1" stroke-width="1.5" stroke-linecap="round" stroke-linejoin="round"/>
<path d="M15.7994 21.4V19.1644C15.8294 18.7924 15.7778 18.4204 15.6482 18.0688C15.5178 17.717 15.3131 17.3973 15.0482 17.1316C17.5598 16.8592 20.1998 15.9316 20.1998 11.6788C20.1975 10.5857 19.7667 9.537 18.9998 8.75799C19.3648 7.80772 19.3389 6.75163 18.9278 5.82038C18.9278 5.82038 17.9834 5.54798 15.7994 6.97358C13.9644 6.48982 12.0353 6.48982 10.2002 6.97358C8.01622 5.54798 7.07182 5.82158 7.07182 5.82158C6.66139 6.75214 6.63551 7.80722 6.99983 8.75678C6.22764 9.54157 5.79639 10.5994 5.79983 11.7004C5.79983 15.9232 8.43983 16.8496 10.9514 17.1532C10.6894 17.4166 10.4865 17.7328 10.3562 18.0808C10.2269 18.4261 10.1737 18.7954 10.2002 19.1632V21.4" stroke="#CBD5E1" stroke-width="1.5" stroke-linecap="round" stroke-linejoin="round"/>
<path d="M10.2 19.8425C7.80001 20.5997 5.79961 19.8425 4.59961 17.5049" stroke="#CBD5E1" stroke-width="1.5" stroke-linecap="round" stroke-linejoin="round"/>
</svg>
