<svg width="24" height="24" viewBox="0 0 24 24" fill="none" xmlns="http://www.w3.org/2000/svg">
<path fill-rule="evenodd" clip-rule="evenodd" d="M11.4702 3.46995C11.6108 3.3295 11.8014 3.25061 12.0002 3.25061C12.1989 3.25061 12.3895 3.3295 12.5302 3.46995L18.5302 9.46995C18.6038 9.53861 18.6629 9.62141 18.7039 9.71341C18.7449 9.80541 18.767 9.90473 18.7687 10.0054C18.7705 10.1061 18.752 10.2062 18.7143 10.2995C18.6766 10.3929 18.6204 10.4778 18.5492 10.549C18.478 10.6202 18.3931 10.6764 18.2998 10.7141C18.2064 10.7518 18.1063 10.7703 18.0056 10.7685C17.9049 10.7668 17.8056 10.7447 17.7136 10.7037C17.6216 10.6627 17.5388 10.6036 17.4702 10.53L12.7502 5.80995V20C12.7502 20.1989 12.6711 20.3896 12.5305 20.5303C12.3898 20.6709 12.1991 20.75 12.0002 20.75C11.8012 20.75 11.6105 20.6709 11.4698 20.5303C11.3292 20.3896 11.2502 20.1989 11.2502 20V5.80995L6.53015 10.53C6.46149 10.6036 6.37869 10.6627 6.28669 10.7037C6.19469 10.7447 6.09538 10.7668 5.99468 10.7685C5.89397 10.7703 5.79394 10.7518 5.70056 10.7141C5.60717 10.6764 5.52233 10.6202 5.45112 10.549C5.3799 10.4778 5.32375 10.3929 5.28603 10.2995C5.24831 10.2062 5.22979 10.1061 5.23156 10.0054C5.23334 9.90473 5.25538 9.80541 5.29637 9.71341C5.33736 9.62141 5.39647 9.53861 5.47015 9.46995L11.4702 3.46995Z" fill="#CBD5E1"/>
</svg>
